<?xml version="1.0" encoding="UTF-8" standalone="no"?>
<svg
   xmlns:dc="http://purl.org/dc/elements/1.1/"
   xmlns:cc="http://creativecommons.org/ns#"
   xmlns:rdf="http://www.w3.org/1999/02/22-rdf-syntax-ns#"
   xmlns:svg="http://www.w3.org/2000/svg"
   xmlns="http://www.w3.org/2000/svg"
   xmlns:xlink="http://www.w3.org/1999/xlink"
   version="1.1"
   width="270"
   height="30"
   id="svg2">
  <metadata id="metadata8">
    <rdf:RDF>
      <cc:Work rdf:about="">
        <dc:format>image/svg+xml</dc:format>
        <dc:type rdf:resource="http://purl.org/dc/dcmitype/StillImage" />
        <dc:title></dc:title>
      </cc:Work>
    </rdf:RDF>
  </metadata>
  <defs id="defs6" />
  <g id="polyline" transform="translate(0,0)">
    <path
       d="M 10,10.5 L 10,20.5 L 20,20.5"
       id="path19"
       style="fill:none;stroke:#000000;stroke-width:2;stroke-opacity:1" />
    <circle
       cx="10"
       cy="10.5"
       r="2"
       id="circle21"
       style="fill:#ffffff;fill-opacity:1;stroke:#000000;stroke-width:1;stroke-opacity:1" />
    <circle
       cx="20"
       cy="20.5"
       r="2"
       id="circle23"
       style="fill:#ffffff;fill-opacity:1;stroke:#000000;stroke-width:1;stroke-opacity:1" />
  </g>
  <g id="polygon" transform="translate(30,0)">
    <path
       d="M 10,10.5 L 10,20.5 L 20,20.5 L 20,10.5 Z"
       id="path26"
       style="fill:#ffffff;fill-opacity:1;stroke:#000000;stroke-width:2;stroke-opacity:1" />
    <circle
       cx="10"
       cy="10.5"
       r="2"
       id="circle28"
       style="fill:#ffffff;fill-opacity:1;stroke:#000000;stroke-width:1;stroke-opacity:1" />
    <circle
       cx="10"
       cy="20.5"
       r="2"
       id="circle30"
       style="fill:#ffffff;fill-opacity:1;stroke:#000000;stroke-width:1;stroke-opacity:1" />
    <circle
       cx="20"
       cy="20.5"
       r="2"
       id="circle32"
       style="fill:#ffffff;fill-opacity:1;stroke:#000000;stroke-width:1;stroke-opacity:1" />
    <circle
       cx="20"
       cy="10.5"
       r="2"
       id="circle34"
       style="fill:#ffffff;fill-opacity:1;stroke:#000000;stroke-width:1;stroke-opacity:1" />
  </g>
  <g id="rectangle" transform="translate(60,0)">
    <path
       d="M 10,10.5 L 10,20.5 L 20,20.5 L 20,10.5 Z"
       id="path37"
       style="fill:#ffffff;fill-opacity:1;stroke:#000000;stroke-width:2;stroke-opacity:1" />
  </g>
  <g id="circle" transform="translate(90,0)">
    <circle
       cx="15"
       cy="15.5"
       r="5"
       id="circle40"
       style="fill:#ffffff;fill-opacity:1;stroke:#000000;stroke-width:2;stroke-opacity:1" />
  </g>
  <g id="marker" transform="translate(120,0)">
    <path
       d="M 15,7.5 C 12.5,7.5 10.5,9.5 10.5,12 C 10.5,16 15,21 15,21 C 15,21 19.5,16 19.5,12 C 19.5,9.5 17.5,7.5 15,7.5 Z"
       id="path43"
       style="fill:#ffffff;fill-opacity:1;stroke:#000000;stroke-width:2;stroke-opacity:1" />
    <circle
       cx="15"
       cy="12"
       r="2"
       id="circle45"
       style="fill:#000000;fill-opacity:1;stroke:#000000;stroke-width:0;stroke-opacity:1" />
  </g>
  <g id="circlemarker" transform="translate(150,0)">
    <circle
       cx="15"
       cy="15.5"
       r="5"
       id="circle48"
       style="fill:#ffffff;fill-opacity:1;stroke:#000000;stroke-width:2;stroke-opacity:1" />
    <circle
       cx="15"
       cy="15.5"
       r="2"
       id="circle50"
       style="fill:#000000;fill-opacity:1;stroke:#000000;stroke-width:0;stroke-opacity:1" />
  </g>
  <g id="edit" transform="translate(180,0)">
    <path
       d="M 11.5,8.5 L 11.5,22.5 L 19.5,15.5 L 11.5,8.5 Z"
       id="path53"
       style="fill:#ffffff;fill-opacity:1;stroke:#000000;stroke-width:2;stroke-opacity:1" />
    <path
       d="M 11.5,8.5 L 11.5,22.5 L 19.5,15.5 Z"
       id="path55"
       style="fill:#000000;fill-opacity:0.1;stroke:#000000;stroke-width:0;stroke-opacity:1" />
  </g>
  <g id="remove" transform="translate(210,0)">
    <path
       d="M 10,10.5 L 20,20.5 M 20,10.5 L 10,20.5"
       id="path58"
       style="fill:none;stroke:#000000;stroke-width:2;stroke-opacity:1" />
  </g>
  <g id="edit-disabled" transform="translate(180,30)">
    <path
       d="M 11.5,8.5 L 11.5,22.5 L 19.5,15.5 L 11.5,8.5 Z"
       id="path61"
       style="fill:#ffffff;fill-opacity:1;stroke:#bbbbbb;stroke-width:2;stroke-opacity:1" />
    <path
       d="M 11.5,8.5 L 11.5,22.5 L 19.5,15.5 Z"
       id="path63"
       style="fill:#bbbbbb;fill-opacity:0.1;stroke:#bbbbbb;stroke-width:0;stroke-opacity:1" />
  </g>
  <g id="remove-disabled" transform="translate(210,30)">
    <path
       d="M 10,10.5 L 20,20.5 M 20,10.5 L 10,20.5"
       id="path66"
       style="fill:none;stroke:#bbbbbb;stroke-width:2;stroke-opacity:1" />
  </g>
  <g id="polyline-disabled" transform="translate(0,30)">
    <path
       d="M 10,10.5 L 10,20.5 L 20,20.5"
       id="path69"
       style="fill:none;stroke:#bbbbbb;stroke-width:2;stroke-opacity:1" />
    <circle
       cx="10"
       cy="10.5"
       r="2"
       id="circle71"
       style="fill:#ffffff;fill-opacity:1;stroke:#bbbbbb;stroke-width:1;stroke-opacity:1" />
    <circle
       cx="20"
       cy="20.5"
       r="2"
       id="circle73"
       style="fill:#ffffff;fill-opacity:1;stroke:#bbbbbb;stroke-width:1;stroke-opacity:1" />
  </g>
  <g id="polygon-disabled" transform="translate(30,30)">
    <path
       d="M 10,10.5 L 10,20.5 L 20,20.5 L 20,10.5 Z"
       id="path76"
       style="fill:#ffffff;fill-opacity:1;stroke:#bbbbbb;stroke-width:2;stroke-opacity:1" />
    <circle
       cx="10"
       cy="10.5"
       r="2"
       id="circle78"
       style="fill:#ffffff;fill-opacity:1;stroke:#bbbbbb;stroke-width:1;stroke-opacity:1" />
    <circle
       cx="10"
       cy="20.5"
       r="2"
       id="circle80"
       style="fill:#ffffff;fill-opacity:1;stroke:#bbbbbb;stroke-width:1;stroke-opacity:1" />
    <circle
       cx="20"
       cy="20.5"
       r="2"
       id="circle82"
       style="fill:#ffffff;fill-opacity:1;stroke:#bbbbbb;stroke-width:1;stroke-opacity:1" />
    <circle
       cx="20"
       cy="10.5"
       r="2"
       id="circle84"
       style="fill:#ffffff;fill-opacity:1;stroke:#bbbbbb;stroke-width:1;stroke-opacity:1" />
  </g>
  <g id="rectangle-disabled" transform="translate(60,30)">
    <path
       d="M 10,10.5 L 10,20.5 L 20,20.5 L 20,10.5 Z"
       id="path87"
       style="fill:#ffffff;fill-opacity:1;stroke:#bbbbbb;stroke-width:2;stroke-opacity:1" />
  </g>
  <g id="circle-disabled" transform="translate(90,30)">
    <circle
       cx="15"
       cy="15.5"
       r="5"
       id="circle90"
       style="fill:#ffffff;fill-opacity:1;stroke:#bbbbbb;stroke-width:2;stroke-opacity:1" />
  </g>
  <g id="marker-disabled" transform="translate(120,30)">
    <path
       d="M 15,7.5 C 12.5,7.5 10.5,9.5 10.5,12 C 10.5,16 15,21 15,21 C 15,21 19.5,16 19.5,12 C 19.5,9.5 17.5,7.5 15,7.5 Z"
       id="path93"
       style="fill:#ffffff;fill-opacity:1;stroke:#bbbbbb;stroke-width:2;stroke-opacity:1" />
    <circle
       cx="15"
       cy="12"
       r="2"
       id="circle95"
       style="fill:#bbbbbb;fill-opacity:1;stroke:#bbbbbb;stroke-width:0;stroke-opacity:1" />
  </g>
  <g id="circlemarker-disabled" transform="translate(150,30)">
    <circle
       cx="15"
       cy="15.5"
       r="5"
       id="circle98"
       style="fill:#ffffff;fill-opacity:1;stroke:#bbbbbb;stroke-width:2;stroke-opacity:1" />
    <circle
       cx="15"
       cy="15.5"
       r="2"
       id="circle100"
       style="fill:#bbbbbb;fill-opacity:1;stroke:#bbbbbb;stroke-width:0;stroke-opacity:1" />
  </g>
  <rect
     width="30"
     height="30"
     x="0"
     y="0"
     id="use133" />
  <use
     transform="translate(30,0)"
     id="use135"
     x="0"
     y="0"
     width="270"
     height="30"
     xlink:href="#rect" />
  <use
     transform="translate(60,0)"
     id="use137"
     x="0"
     y="0"
     width="270"
     height="30"
     xlink:href="#rect" />
  <use
     transform="translate(90,0)"
     id="use139"
     x="0"
     y="0"
     width="270"
     height="30"
     xlink:href="#rect" />
  <use
     transform="translate(120,0)"
     id="use141"
     x="0"
     y="0"
     width="270"
     height="30"
     xlink:href="#rect" />
  <use
     transform="translate(150,0)"
     id="use143"
     x="0"
     y="0"
     width="270"
     height="30"
     xlink:href="#rect" />
  <use
     transform="translate(180,0)"
     id="use145"
     x="0"
     y="0"
     width="270"
     height="30"
     xlink:href="#rect" />
  <use
     transform="translate(210,0)"
     id="use147"
     x="0"
     y="0"
     width="270"
     height="30"
     xlink:href="#rect" />
  <use
     transform="translate(0,30)"
     id="use149"
     x="0"
     y="0"
     width="270"
     height="30"
     xlink:href="#rect" />
  <use
     transform="translate(30,30)"
     id="use151"
     x="0"
     y="0"
     width="270"
     height="30"
     xlink:href="#rect" />
  <use
     transform="translate(60,30)"
     id="use153"
     x="0"
     y="0"
     width="270"
     height="30"
     xlink:href="#rect" />
  <use
     transform="translate(90,30)"
     id="use155"
     x="0"
     y="0"
     width="270"
     height="30"
     xlink:href="#rect" />
  <use
     transform="translate(120,30)"
     id="use157"
     x="0"
     y="0"
     width="270"
     height="30"
     xlink:href="#rect" />
  <use
     transform="translate(150,30)"
     id="use159"
     x="0"
     y="0"
     width="270"
     height="30"
     xlink:href="#rect" />
  <use
     transform="translate(180,30)"
     id="use161"
     x="0"
     y="0"
     width="270"
     height="30"
     xlink:href="#rect" />
  <use
     transform="translate(210,30)"
     id="use163"
     x="0"
     y="0"
     width="270"
     height="30"
     xlink:href="#rect" />
</svg> 